<?xml version="1.0" standalone="no"?>
<!DOCTYPE svg PUBLIC "-//W3C//DTD SVG 20010904//EN"
 "http://www.w3.org/TR/2001/REC-SVG-20010904/DTD/svg10.dtd">
<svg version="1.0" xmlns="http://www.w3.org/2000/svg"
 width="127.000000pt" height="96.000000pt" viewBox="0 0 127.000000 96.000000"
 preserveAspectRatio="xMidYMid meet">

<g transform="translate(0.000000,96.000000) scale(0.100000,-0.100000)"
fill="#000000" stroke="none">
<path d="M368 941 c-135 -37 -171 -57 -206 -114 -105 -174 -153 -338 -155
-529 -2 -146 -4 -143 98 -200 52 -30 205 -98 218 -98 7 0 67 95 67 106 0 5
-24 19 -53 32 -39 17 -48 25 -37 32 9 5 42 -1 90 -17 162 -55 329 -54 496 2
53 18 80 23 87 16 7 -7 -6 -18 -41 -33 -28 -13 -52 -28 -52 -34 0 -6 14 -32
31 -58 35 -53 30 -53 144 -3 99 42 187 98 203 127 10 19 12 54 8 140 -9 187
-60 354 -158 517 -28 45 -40 56 -92 76 -61 24 -196 61 -201 55 -1 -2 -9 -16
-17 -32 l-15 -28 -148 0 -149 0 -15 31 c-17 36 -15 36 -103 12z m128 -412 c54
-50 55 -137 3 -189 -55 -55 -145 -36 -175 36 -8 18 -14 46 -14 62 0 35 36 92
70 110 33 17 87 8 116 -19z m426 -9 c50 -54 49 -125 -1 -179 -24 -26 -37 -31
-74 -31 -37 0 -51 5 -76 30 -36 36 -47 85 -32 133 12 34 42 69 71 80 32 13 85
-2 112 -33z"/>
</g>
</svg>
