<?xml version="1.0" standalone="no"?>
<!DOCTYPE svg PUBLIC "-//W3C//DTD SVG 20010904//EN"
 "http://www.w3.org/TR/2001/REC-SVG-20010904/DTD/svg10.dtd">
<svg version="1.0" xmlns="http://www.w3.org/2000/svg"
 width="2549.000000pt" height="1959.000000pt" viewBox="0 0 2549.000000 1959.000000"
 preserveAspectRatio="xMidYMid meet">

<g transform="translate(0.000000,1959.000000) scale(0.100000,-0.100000)"
fill="#000000" stroke="none">
<path d="M956 19574 c-482 -87 -856 -464 -941 -948 -13 -80 -15 -985 -15
-8831 0 -7645 2 -8753 15 -8827 78 -447 418 -815 860 -928 42 -11 124 -24 183
-30 161 -17 23335 -8 23452 8 272 39 484 136 668 307 109 102 191 212 256 345
l51 104 3 8964 2 8964 -30 89 c-60 180 -137 305 -275 448 -151 156 -325 258
-545 319 l-95 27 -11755 2 c-10149 1 -11766 -1 -11834 -13z m1659 -1049 c39
-8 113 -36 165 -61 80 -40 109 -62 185 -138 137 -138 201 -279 212 -466 17
-291 -138 -555 -402 -686 -353 -175 -775 -35 -960 317 -52 99 -75 201 -75 328
0 124 17 205 64 304 143 307 476 472 811 402z m2310 0 c89 -18 234 -90 303
-149 166 -142 262 -346 262 -556 0 -210 -101 -424 -261 -556 -268 -220 -655
-219 -924 3 -116 95 -206 242 -241 390 -24 102 -15 294 19 391 84 243 285 423
532 477 81 18 224 18 310 0z m2310 0 c39 -8 111 -35 160 -59 156 -78 253 -175
331 -331 24 -49 51 -121 59 -160 19 -89 19 -221 0 -310 -18 -86 -89 -230 -150
-307 -88 -110 -236 -202 -386 -239 -117 -30 -280 -24 -394 15 -221 75 -391
245 -462 463 -37 113 -43 278 -15 391 70 274 277 478 547 537 81 18 224 18
310 0z m16548 -5107 c4 -1465 7 -4680 7 -7145 0 -2982 3 -4483 10 -4483 6 0
10 -8 10 -18 0 -18 -104 -19 -3142 -25 -1729 -4 -6695 -7 -11035 -7 l-7893 0
0 7170 0 7170 11018 0 11019 0 6 -2662z"/>
<path d="M10880 15049 c-198 -11 -210 -14 -210 -45 0 -14 -18 -117 -40 -227
-110 -544 -237 -854 -381 -927 -96 -49 -228 0 -429 159 -134 106 -418 400
-569 589 -19 23 -41 42 -49 42 -21 0 -251 -115 -396 -197 -168 -97 -376 -232
-376 -246 0 -5 23 -74 51 -151 148 -403 212 -666 213 -871 1 -140 -15 -196
-69 -243 -54 -48 -95 -57 -245 -56 -105 1 -162 7 -260 28 -169 37 -358 92
-582 169 -171 60 -188 64 -201 48 -26 -29 -141 -203 -207 -311 -74 -123 -233
-428 -228 -439 2 -5 50 -48 108 -96 433 -358 686 -653 715 -831 19 -121 -116
-236 -390 -334 -159 -56 -491 -133 -797 -184 l-36 -7 -8 -107 c-10 -135 -10
-556 0 -685 7 -88 10 -97 29 -101 12 -3 90 -16 172 -31 711 -127 1066 -298
1029 -496 -34 -179 -279 -463 -699 -812 -66 -55 -121 -104 -123 -108 -5 -12
136 -286 216 -419 57 -96 204 -319 228 -349 2 -2 41 10 86 27 251 93 494 165
697 208 95 20 158 27 256 28 145 1 187 -8 240 -56 54 -47 70 -103 69 -243 -1
-205 -65 -468 -213 -871 -28 -77 -51 -146 -51 -151 0 -15 247 -174 413 -268
150 -83 338 -175 359 -175 7 0 53 48 103 108 129 154 465 489 565 562 180 133
308 167 398 107 137 -90 257 -394 361 -915 23 -112 41 -214 41 -227 0 -14 7
-26 18 -29 9 -3 111 -10 225 -16 219 -12 639 1 663 21 6 5 15 32 18 61 13 94
64 341 100 480 75 290 156 481 242 577 106 118 220 105 439 -50 106 -75 422
-386 570 -562 54 -64 105 -117 112 -117 20 0 268 123 401 199 154 89 372 230
372 242 0 4 -9 32 -21 61 -33 84 -127 364 -156 463 -100 351 -119 604 -52 708
16 24 43 47 79 65 52 25 63 27 185 26 72 0 159 -6 195 -13 188 -36 478 -119
729 -210 63 -22 116 -41 117 -41 2 0 29 37 62 83 97 137 217 337 308 513 l87
168 -35 30 c-19 17 -92 80 -163 141 -377 319 -603 591 -630 756 -9 59 5 97 57
154 91 100 313 193 653 275 118 28 441 90 470 90 12 0 27 6 34 13 21 26 34
425 22 658 -12 227 -15 239 -64 239 -73 0 -553 107 -727 162 -252 80 -415 184
-441 281 -20 75 27 200 126 332 105 140 379 407 610 593 44 35 81 67 83 72 4
11 -142 292 -220 423 -105 175 -223 342 -239 340 -8 -1 -104 -33 -214 -71
-208 -71 -395 -125 -575 -163 -79 -17 -139 -23 -240 -24 -128 0 -138 1 -192
28 -70 35 -97 76 -111 175 -28 191 52 543 239 1050 15 40 25 74 23 76 -103 88
-718 436 -771 436 -8 0 -53 -47 -101 -104 -89 -106 -262 -290 -370 -395 -202
-194 -387 -310 -495 -311 -167 -1 -304 247 -427 770 -25 108 -62 301 -70 363
-5 38 -13 61 -24 66 -18 10 -372 32 -478 30 -37 -1 -133 -6 -213 -10z m-90
-2828 c0 -1013 -1 -1050 -19 -1056 -32 -10 -142 -91 -199 -147 -101 -98 -183
-247 -213 -387 -6 -29 -12 -91 -13 -137 l-1 -83 -75 -44 c-41 -24 -178 -102
-305 -174 -481 -273 -1175 -668 -1307 -744 -75 -43 -141 -79 -145 -79 -21 0
-136 340 -173 510 -63 292 -79 659 -40 947 120 901 650 1669 1455 2112 292
160 594 259 995 324 14 2 28 5 33 6 4 0 7 -471 7 -1048z m875 1014 c415 -77
796 -241 1150 -493 316 -226 605 -549 807 -902 378 -660 462 -1483 227 -2215
-35 -108 -93 -255 -102 -255 -4 0 -122 65 -260 144 -339 193 -981 559 -1309
745 l-268 153 0 86 c-1 252 -146 502 -371 637 -35 21 -67 44 -71 49 -9 13 -11
2047 -2 2070 7 17 -2 18 199 -19z m-411 -2543 c81 -44 126 -121 126 -217 0
-143 -106 -249 -250 -249 -244 -1 -348 299 -154 446 83 64 183 70 278 20z
m-480 -907 c120 -60 211 -80 361 -79 147 1 228 19 349 79 49 25 94 45 99 45 5
0 177 -95 381 -212 638 -363 1288 -733 1369 -778 42 -24 77 -47 77 -50 0 -10
-120 -153 -194 -231 -589 -618 -1408 -942 -2254 -890 -708 43 -1361 333 -1851
821 -109 108 -261 283 -261 300 0 5 15 17 33 26 17 9 163 91 322 182 160 91
472 269 695 395 223 127 486 277 585 334 99 56 185 103 190 103 6 0 50 -20 99
-45z"/>
<path d="M16806 8138 c-47 -108 -154 -311 -208 -395 -71 -111 -162 -199 -214
-209 -44 -8 -86 10 -141 60 -74 66 -201 263 -309 477 -37 75 -48 89 -68 89
-56 0 -490 -120 -511 -142 -2 -2 3 -71 11 -153 19 -183 14 -400 -10 -503 -13
-54 -26 -81 -51 -107 -30 -32 -37 -35 -93 -35 -33 0 -84 8 -113 17 -85 27
-282 131 -422 222 l-127 83 -28 -18 c-35 -23 -276 -264 -326 -326 l-38 -48 30
-38 c131 -165 292 -449 314 -553 24 -117 -17 -172 -155 -205 -87 -21 -396 -30
-537 -16 -68 7 -98 6 -106 -2 -26 -25 -119 -358 -130 -466 l-6 -55 154 -73
c332 -157 498 -285 498 -382 0 -95 -178 -238 -482 -388 -113 -56 -157 -82
-157 -95 -1 -30 59 -266 94 -367 51 -148 53 -152 73 -146 42 12 367 28 467 23
295 -16 368 -81 304 -269 -41 -118 -109 -245 -236 -434 l-75 -113 20 -28 c42
-60 355 -353 376 -353 4 0 44 26 89 58 341 241 568 330 655 257 81 -68 105
-302 78 -744 -1 -21 7 -28 49 -44 67 -25 284 -83 365 -96 36 -7 77 -14 92 -17
25 -5 29 1 111 168 132 267 235 411 331 460 35 18 44 19 79 8 93 -27 225 -198
368 -475 75 -143 80 -150 106 -147 53 6 279 64 388 100 l110 37 -2 60 c-1 33
-5 157 -9 276 -6 187 -4 227 11 295 20 93 35 125 71 153 83 65 295 -13 636
-236 53 -35 102 -63 107 -63 19 0 190 160 292 273 l98 109 -40 57 c-206 283
-309 483 -309 598 0 55 16 82 62 111 80 49 361 74 602 53 78 -7 133 -8 139 -2
24 24 117 359 132 476 l7 50 -69 29 c-278 118 -520 274 -569 368 -60 115 78
249 456 441 85 44 158 82 162 86 15 14 -67 330 -120 467 l-20 49 -58 -1 c-33
-1 -151 -5 -264 -9 -275 -10 -395 8 -457 70 -29 29 -33 39 -33 89 0 109 83
286 252 539 l79 118 -71 78 c-65 73 -257 251 -308 287 -21 14 -26 12 -104 -43
-329 -232 -560 -328 -651 -269 -14 10 -35 37 -46 62 -41 86 -46 136 -45 435
l0 286 -80 26 c-85 28 -293 80 -361 91 -22 4 -51 9 -65 12 -23 4 -28 -1 -44
-38z m-61 -1053 c161 -34 256 -66 405 -137 355 -168 653 -458 821 -800 24 -48
40 -90 36 -94 -7 -8 -1215 -344 -1235 -344 -8 0 -33 16 -55 36 -104 89 -266
136 -392 114 -39 -7 -79 -13 -91 -14 -14 -1 -156 129 -477 438 -251 242 -457
445 -457 452 0 19 198 148 313 204 174 84 384 146 574 170 37 5 151 7 253 5
150 -3 208 -9 305 -30z m-1136 -1225 c300 -286 320 -307 316 -335 -15 -98 -17
-187 -5 -236 18 -77 64 -164 117 -220 l46 -49 -27 -108 c-14 -59 -46 -186 -71
-282 -43 -165 -118 -454 -188 -727 -22 -86 -36 -123 -46 -123 -24 0 -251 115
-331 167 -674 443 -954 1291 -673 2043 20 52 51 127 70 165 39 77 134 227 165
262 l21 22 143 -137 c79 -75 287 -274 463 -442z m2535 -347 c70 -911 -609
-1727 -1534 -1842 -94 -12 -321 -15 -395 -5 -44 7 -47 9 -42 33 3 23 45 186
202 791 25 96 59 232 77 302 31 124 33 127 63 134 154 33 318 198 350 351 6
28 12 34 58 47 79 22 413 116 487 136 36 10 117 32 180 50 63 18 144 40 180
50 89 24 289 80 320 90 14 4 29 3 34 -1 6 -5 14 -66 20 -136z"/>
</g>
</svg>
