<?xml version="1.0" standalone="no"?>
<!DOCTYPE svg PUBLIC "-//W3C//DTD SVG 20010904//EN"
 "http://www.w3.org/TR/2001/REC-SVG-20010904/DTD/svg10.dtd">
<svg version="1.0" xmlns="http://www.w3.org/2000/svg"
 width="2761.000000pt" height="2294.000000pt" viewBox="0 0 2761.000000 2294.000000"
 preserveAspectRatio="xMidYMid meet">

<g transform="translate(0.000000,2294.000000) scale(0.100000,-0.100000)"
fill="#000000" stroke="none">
<path d="M956 22924 c-482 -87 -856 -464 -941 -948 -13 -80 -15 -985 -15
-8831 0 -7645 2 -8753 15 -8827 89 -511 505 -899 1029 -957 97 -11 10886 -17
10886 -6 0 3 -41 86 -90 185 -203 406 -354 770 -495 1195 -51 154 -96 296
-102 315 l-9 35 -4747 3 -4747 2 0 7170 0 7170 11020 0 11020 0 0 -1773 0
-1774 216 -106 c485 -240 966 -533 1380 -840 73 -53 135 -97 138 -97 3 0 5
1599 3 3553 l-3 3552 -21 85 c-58 232 -146 391 -308 559 -151 156 -325 258
-545 319 l-95 27 -11755 2 c-10149 1 -11766 -1 -11834 -13z m1659 -1049 c39
-8 113 -36 165 -61 80 -40 109 -62 185 -138 137 -138 201 -279 212 -466 17
-291 -138 -555 -402 -686 -353 -175 -775 -35 -960 317 -52 99 -75 201 -75 328
0 124 17 205 64 304 143 307 476 472 811 402z m2310 0 c89 -18 234 -90 303
-149 166 -142 262 -346 262 -556 0 -210 -101 -424 -261 -556 -268 -220 -655
-219 -924 3 -116 95 -206 242 -241 390 -24 102 -15 294 19 391 84 243 285 423
532 477 81 18 224 18 310 0z m2310 0 c39 -8 111 -35 160 -59 156 -78 253 -175
331 -331 24 -49 51 -121 59 -160 19 -89 19 -221 0 -310 -18 -86 -89 -230 -150
-307 -88 -110 -236 -202 -386 -239 -117 -30 -280 -24 -394 15 -221 75 -391
245 -462 463 -37 113 -43 278 -15 391 70 274 277 478 547 537 81 18 224 18
310 0z"/>
<path d="M18650 15083 c-124 -21 -414 -84 -585 -128 -546 -140 -1031 -322
-1540 -580 -741 -374 -1362 -823 -1951 -1410 -202 -201 -394 -409 -394 -426 0
-5 444 -9 1128 -9 l1129 0 93 148 c258 408 568 822 899 1201 336 383 874 897
1241 1183 34 27 32 30 -20 21z"/>
<path d="M21270 15062 c474 -371 1045 -935 1466 -1448 226 -276 483 -633 671
-930 l97 -154 1128 0 c760 0 1128 3 1128 10 0 28 -396 440 -618 642 -1043 955
-2303 1595 -3679 1868 -112 22 -209 40 -215 40 -7 0 3 -13 22 -28z"/>
<path d="M19393 14601 c-374 -281 -606 -483 -959 -835 -265 -266 -386 -397
-575 -626 -161 -194 -449 -579 -449 -600 0 -7 361 -10 1080 -10 l1080 0 0
1100 c0 605 -1 1100 -3 1100 -1 0 -80 -58 -174 -129z"/>
<path d="M20372 13633 l3 -1098 1078 -3 c946 -2 1078 0 1075 13 -10 45 -384
528 -613 792 -161 185 -635 661 -815 818 -208 181 -528 435 -698 554 l-32 22
2 -1098z"/>
<path d="M13467 11578 c-663 -1071 -1052 -2282 -1133 -3530 l-7 -108 1361 0
1362 0 4 23 c2 12 9 110 15 218 62 1130 382 2383 872 3418 33 68 59 126 59
128 0 1 -549 3 -1219 3 l-1219 0 -95 -152z"/>
<path d="M16767 11458 c-357 -719 -597 -1425 -753 -2204 -73 -371 -135 -849
-150 -1171 l-7 -143 1856 0 1857 0 0 1895 0 1895 -1334 0 -1334 0 -135 -272z"/>
<path d="M20372 9838 l3 -1893 1845 -3 c1015 -1 1850 0 1855 2 18 6 -8 363
-51 706 -102 816 -328 1637 -664 2415 -28 66 -112 243 -186 393 l-135 272
-1335 0 -1334 0 2 -1892z"/>
<path d="M23954 11698 c8 -18 44 -96 79 -173 275 -591 507 -1292 651 -1965 95
-444 172 -1017 191 -1415 3 -66 8 -139 11 -162 l5 -43 1360 0 1359 0 0 48 c0
64 -35 438 -55 582 -148 1085 -511 2088 -1097 3033 l-79 127 -1220 0 -1219 0
14 -32z"/>
<path d="M12334 7033 c54 -840 261 -1701 600 -2503 80 -188 278 -585 384 -770
l88 -155 1241 -3 1241 -2 -55 127 c-445 1028 -717 2182 -771 3268 l-7 140
-1364 3 -1363 2 6 -107z"/>
<path d="M15864 7003 c30 -609 166 -1369 355 -1994 136 -449 341 -971 522
-1330 l39 -79 1395 0 1395 0 0 1770 0 1770 -1857 0 -1856 0 7 -137z"/>
<path d="M20370 5370 l0 -1770 1396 0 1395 0 79 163 c481 1001 775 2142 838
3255 l7 122 -1857 0 -1858 0 0 -1770z"/>
<path d="M24886 7108 c-2 -18 -9 -119 -16 -224 -61 -1050 -344 -2216 -773
-3181 l-46 -103 1239 0 1239 0 49 83 c467 781 813 1756 956 2697 37 244 76
608 76 718 l0 42 -1360 0 -1359 0 -5 -32z"/>
<path d="M13980 2785 c0 -3 56 -71 124 -152 1123 -1341 2661 -2254 4368 -2594
109 -21 205 -39 214 -39 8 0 -45 49 -118 109 -854 700 -1584 1543 -2152 2486
l-114 190 -1161 3 c-639 1 -1161 0 -1161 -3z"/>
<path d="M17250 2783 c0 -4 41 -68 92 -143 508 -750 1115 -1410 1808 -1965
145 -116 372 -288 408 -309 9 -6 12 239 12 1208 l0 1216 -1160 0 c-638 0
-1160 -3 -1160 -7z"/>
<path d="M20370 1575 c0 -668 2 -1215 4 -1215 3 0 86 61 186 136 699 523 1321
1153 1846 1869 104 141 284 406 284 417 0 4 -522 8 -1160 8 l-1160 0 0 -1215z"/>
<path d="M23541 2621 c-570 -954 -1334 -1837 -2189 -2529 -67 -54 -106 -92
-95 -92 10 0 108 18 218 40 1089 219 2091 659 2995 1314 495 359 980 814 1393
1307 53 64 97 119 97 123 0 3 -522 6 -1159 6 l-1160 0 -100 -169z"/>
</g>
</svg>
