<?xml version="1.0" standalone="no"?>
<!DOCTYPE svg PUBLIC "-//W3C//DTD SVG 20010904//EN"
 "http://www.w3.org/TR/2001/REC-SVG-20010904/DTD/svg10.dtd">
<svg version="1.0" xmlns="http://www.w3.org/2000/svg"
 width="2769.000000pt" height="2774.000000pt" viewBox="0 0 2769.000000 2774.000000"
 preserveAspectRatio="xMidYMid meet">

<g transform="translate(0.000000,2774.000000) scale(0.100000,-0.100000)"
fill="#000000" stroke="none">
<path d="M15968 27721 c-31 -10 -74 -29 -95 -41 -49 -29 -2370 -2345 -2429
-2423 -100 -134 -111 -318 -27 -467 17 -29 1840 -1861 5207 -5230 2850 -2852
5302 -5311 5448 -5465 1106 -1168 1796 -1991 2288 -2727 133 -198 171 -244
240 -287 75 -48 140 -63 238 -59 113 6 184 33 258 101 75 68 91 96 157 267
213 555 340 1102 404 1740 22 220 25 861 5 1075 -52 563 -151 1048 -311 1530
-262 789 -632 1449 -1162 2072 -113 133 -9761 9787 -9842 9848 -105 80 -254
106 -379 66z"/>
<path d="M5250 27679 c-359 -26 -741 -90 -1090 -184 -127 -34 -189 -64 -240
-115 -93 -93 -126 -249 -80 -375 22 -58 58 -96 1195 -1235 644 -646 1192
-1202 1217 -1235 102 -137 173 -283 215 -444 34 -131 43 -383 18 -516 -36
-194 -114 -373 -229 -525 -96 -127 -1558 -1581 -1656 -1647 -102 -69 -217
-125 -330 -161 -294 -93 -639 -67 -915 70 -180 90 -162 73 -1415 1324 -986
984 -1193 1187 -1235 1205 -40 19 -69 23 -145 23 -82 1 -102 -2 -151 -25 -66
-31 -129 -90 -160 -151 -73 -142 -189 -715 -231 -1138 -20 -209 -17 -822 5
-1034 119 -1116 528 -2121 1211 -2975 872 -1091 2113 -1822 3481 -2050 491
-82 1059 -95 1555 -35 382 45 740 126 1151 259 220 72 324 89 499 82 199 -8
332 -42 505 -127 194 -96 194 -96 1295 -1244 l1024 -1066 265 263 c146 144
731 721 1299 1281 567 560 1032 1021 1032 1025 0 3 -461 448 -1024 989 -563
540 -1055 1016 -1094 1056 -229 241 -343 550 -329 890 7 158 17 205 87 424
214 660 300 1229 287 1897 -6 292 -21 481 -58 720 -243 1580 -1150 2983 -2499
3868 -806 528 -1733 837 -2720 907 -167 11 -571 11 -740 -1z"/>
<path d="M22890 24580 c-160 -34 -292 -92 -430 -188 -36 -25 -255 -235 -493
-471 l-427 -426 1297 -1297 1298 -1298 419 418 c230 229 444 451 475 493 141
187 213 410 214 659 1 190 -34 342 -116 505 -72 145 -122 201 -682 763 -302
304 -580 578 -617 608 -143 118 -307 196 -493 235 -120 25 -326 25 -445 -1z"/>
<path d="M9409 11480 c-4507 -4445 -8323 -8211 -8480 -8368 -287 -288 -337
-348 -405 -483 -182 -363 -150 -812 84 -1144 43 -61 1175 -1200 1252 -1259
292 -226 701 -288 1056 -162 113 41 219 99 308 170 35 28 3817 3754 8406 8281
4588 4527 8394 8280 8457 8340 l114 110 -1299 1298 -1299 1299 -8194 -8082z"/>
<path d="M16216 11473 l-1385 -1366 37 -41 c20 -23 1961 -2046 4314 -4497
l4277 -4457 848 -539 c535 -341 868 -546 901 -558 77 -25 179 -18 257 18 54
25 160 128 1112 1080 952 952 1055 1058 1079 1111 37 81 43 180 17 257 -12 36
-212 360 -558 903 l-538 846 -4430 4253 c-2437 2338 -4456 4276 -4487 4304
l-58 53 -1386 -1367z m9142 -8231 c491 -184 630 -805 262 -1172 -218 -218
-538 -270 -820 -133 -81 39 -108 59 -185 137 -147 148 -208 296 -207 506 1
125 17 195 72 305 71 145 168 245 312 320 112 59 191 76 348 72 122 -3 143 -7
218 -35z"/>
</g>
</svg>
