<?xml version="1.0" standalone="no"?>
<!DOCTYPE svg PUBLIC "-//W3C//DTD SVG 20010904//EN"
 "http://www.w3.org/TR/2001/REC-SVG-20010904/DTD/svg10.dtd">
<svg version="1.0" xmlns="http://www.w3.org/2000/svg"
 width="3091.000000pt" height="2697.000000pt" viewBox="0 0 3091.000000 2697.000000"
 preserveAspectRatio="xMidYMid meet">

<g transform="translate(0.000000,2697.000000) scale(0.100000,-0.100000)"
fill="#000000" stroke="none">
<path d="M7741 22264 c-4242 -2586 -7718 -4707 -7723 -4712 -9 -9 1931 -3204
1942 -3197 3 2 3040 1853 6749 4115 6636 4045 6745 4112 6770 4097 15 -9 3052
-1860 6751 -4116 4459 -2718 6727 -4096 6732 -4088 3 7 441 725 972 1596 762
1250 964 1587 954 1596 -7 7 -3455 2110 -7663 4675 -4207 2565 -7677 4680
-7710 4700 l-61 37 -7713 -4703z"/>
<path d="M10050 17200 l-5405 -3298 -3 -5319 c-2 -3875 0 -5356 8 -5458 83
-1033 648 -1987 1517 -2558 514 -338 1075 -522 1698 -557 110 -6 1099 -10
2527 -10 l2348 0 3 2882 c3 2678 4 2891 20 2997 61 399 175 727 361 1037 412
690 1074 1145 1876 1291 135 25 166 27 445 27 357 1 488 -16 780 -101 502
-145 1006 -480 1328 -883 372 -465 571 -979 607 -1570 6 -103 10 -1202 10
-2923 l0 -2758 2473 4 c2583 4 2513 3 2785 48 813 135 1539 556 2076 1204 358
430 618 997 715 1560 48 276 46 -18 46 5704 l0 5384 -5395 3291 c-2967 1810
-5399 3294 -5405 3298 -5 3 -2442 -1478 -5415 -3292z"/>
</g>
</svg>
